# xmcd
#
# Track frame offsets: 
#        150
#        14388
#        30918
#        48943
#        64132
#        77067
#        90364
#        103687
#        120076
#        137354
#
# Disc length: 2017 seconds
#
# Revision: 0
# Processed by: cddbd v1.5.2PL0 Copyright (c) Steve Scherf et al.
# Submitted via: ExactAudioCopyFreeDBPlugin 1.0
#
DISCID=6707df0a
DTITLE=The Stellas - Stellas
DYEAR=2011
DGENRE=Country
TTITLE0=Perfect
TTITLE1=I can't listen to love songs
TTITLE2=In this house
TTITLE3=Riding in the back seat
TTITLE4=The game
TTITLE5=Woe is me
TTITLE6=Take it slow
TTITLE7=I wished for you
TTITLE8=Life of Riley
TTITLE9=Love hurts
EXTD=
EXTT0=
EXTT1=
EXTT2=
EXTT3=
EXTT4=
EXTT5=
EXTT6=
EXTT7=
EXTT8=
EXTT9=
PLAYORDER=
